<?xml version="1.0" ?><svg height="100%" id="svg15" style="fill-rule:evenodd;clip-rule:evenodd;stroke-linejoin:round;stroke-miterlimit:2;" version="1.1" viewBox="0 0 64 64" width="100%" xml:space="preserve" xmlns="http://www.w3.org/2000/svg" xmlns:cc="http://creativecommons.org/ns#" xmlns:dc="http://purl.org/dc/elements/1.1/" xmlns:inkscape="http://www.inkscape.org/namespaces/inkscape" xmlns:rdf="http://www.w3.org/1999/02/22-rdf-syntax-ns#" xmlns:sodipodi="http://sodipodi.sourceforge.net/DTD/sodipodi-0.dtd" xmlns:svg="http://www.w3.org/2000/svg"><defs id="defs19"/><path d="m 32.0005,4.9998636 c -14.901371,0 -27.0001352,12.0982884 -27.0001352,27.0001484 0,14.901861 12.0987642,27.000149 27.0001352,27.000149 14.901371,0 27.000135,-12.098288 27.000135,-27.000149 0,-14.90186 -12.098764,-27.0001484 -27.000135,-27.0001484 z m 0,2.0003388 c 13.798528,0 25.000286,11.2021186 25.000286,24.9998096 0,13.797692 -11.201758,24.99981 -25.000286,24.99981 -13.798528,0 -25.0002856,-11.202118 -25.0002856,-24.99981 0,-13.797691 11.2017576,-24.9998096 25.0002856,-24.9998096 z" id="path4" style="stroke-width:1.0948;fill:#000000"/><path d="m 27.42001,39.965222 c -0.676002,1.472005 -1.212004,3.15201 -1.371004,4.947015 l -0.004,0.343001 c -1.803006,-0.049 -4.070013,-0.543001 -5.150016,-2.702008 -0.500002,-1.002003 -1.115004,-1.640005 -1.756006,-2.041006 -1.068003,-0.668002 -2.240007,-0.694002 -3.26501,-0.453002 -1.389004,0.325001 -2.473007,1.141004 -2.473007,1.141004 -0.344001,0.258001 -0.485002,0.708002 -0.349001,1.116003 0.136,0.409002 0.519001,0.684003 0.949003,0.684003 1.076003,0 1.550004,0.807002 2.006006,1.704005 0.682002,1.340004 1.259004,2.931009 2.331007,4.003012 1.894006,1.893006 5.207016,2.399008 7.686024,2.448008 0,0 -0.023,6.842021 -0.023,6.842021 l 2.000006,0.006 0.027,-7.850024 c 0.001,-0.271001 -0.108,-0.530002 -0.302001,-0.719003 -0.195001,-0.19 -0.457001,-0.292 -0.728002,-0.284 -2.070007,0.062 -5.451017,-0.063 -7.245023,-1.857006 -0.522001,-0.522002 -0.879002,-1.208004 -1.209003,-1.902006 -0.399002,-0.835003 -0.756003,-1.687005 -1.203004,-2.391007 -0.247001,-0.390002 -0.520002,-0.738003 -0.831003,-1.031004 0.503002,-0.093 1.060004,-0.079 1.569005,0.239001 0.383001,0.239001 0.728002,0.641002 1.028003,1.239004 1.698006,3.39701 5.510017,3.913012 7.982025,3.795012 0.532002,-0.026 0.950003,-0.463002 0.952003,-0.996003 l 0.004,-1.199004 c 0.194001,-2.100007 0.990003,-4.014013 1.862006,-5.554017 0.176,-0.310001 0.173,-0.689003 -0.006,-0.997003 -0.179001,-0.307001 -0.508002,-0.496002 -0.864003,-0.496002 h -0.636002 c -5.137016,0 -9.400029,-3.25101 -9.400029,-7.400023 0,0 0,-1.292004 0,-1.292004 0,-2.674008 1.294004,-5.100016 3.37801,-6.921021 0.323001,-0.281001 0.431002,-0.738003 0.267001,-1.134004 -0.740002,-1.794005 -0.707002,-3.710011 -0.581002,-4.886015 1.098004,0.486001 2.810009,1.438004 3.996013,3.020009 0.255001,0.341001 0.699002,0.483002 1.104003,0.353001 1.498005,-0.478001 3.12901,-0.740002 4.836015,-0.740002 1.707006,0 3.338011,0.262001 4.836015,0.740002 0.405002,0.130001 0.849003,-0.012 1.104004,-0.353001 1.186003,-1.582005 2.898009,-2.534008 3.996012,-3.020009 0.126,1.176004 0.159001,3.09201 -0.581002,4.886015 -0.164,0.396001 -0.056,0.853003 0.267001,1.134004 2.084007,1.821005 3.378011,4.247013 3.378011,6.921021 0,0 0,1.292004 0,1.292004 0,4.149013 -4.263014,7.400023 -9.40003,7.400023 0,0 -0.636002,0 -0.636002,0 -0.356001,0 -0.685002,0.189001 -0.864002,0.496002 -0.179001,0.308 -0.182001,0.687002 -0.006,0.997003 1.002003,1.769005 1.906006,4.034012 1.906006,6.50702 v 12.000037 h 2.000006 V 46.000241 c 0,-2.204007 -0.609002,-4.270013 -1.419004,-6.035019 5.876018,-0.413001 10.419032,-4.508014 10.419032,-9.365029 v -1.292004 c 0,-3.023009 -1.326004,-5.803018 -3.552011,-7.957025 1.060003,-3.24901 0.249001,-6.58802 0.249001,-6.58802 -0.065,-0.265001 -0.235001,-0.493002 -0.471002,-0.629002 -0.237001,-0.136 -0.518002,-0.170001 -0.780002,-0.094 0,0 -3.374011,0.990003 -5.661018,3.599011 -1.501005,-0.414001 -3.11101,-0.639002 -4.785015,-0.639002 -1.674005,0 -3.28401,0.225001 -4.786015,0.639002 -2.286007,-2.609008 -5.660017,-3.599011 -5.660017,-3.599011 -0.262001,-0.076 -0.543002,-0.042 -0.780003,0.094 -0.236,0.136 -0.406001,0.364001 -0.471001,0.629002 0,0 -0.811002,3.33901 0.249001,6.58802 -2.226007,2.154007 -3.552011,4.934016 -3.552011,7.957025 v 1.292004 c 0,4.857015 4.543014,8.952028 10.419032,9.365029 z" id="path8" style="stroke-width:1;fill:#000000"/></svg>